<mxfile host="app.diagrams.net" modified="2021-04-22T01:50:27.681Z" agent="5.0 (Windows NT 10.0; WOW64) AppleWebKit/537.36 (KHTML, like Gecko) Chrome/90.0.4430.72 Safari/537.36" etag="HEhMDUc_PU9PDa7km7cB" version="14.5.8" type="github">
  <diagram id="157axFhQxNzcxSdGKx4_" name="第 1 页">
    <mxGraphModel dx="1422" dy="762" grid="1" gridSize="10" guides="1" tooltips="1" connect="1" arrows="1" fold="1" page="1" pageScale="1" pageWidth="827" pageHeight="1169" math="0" shadow="0">
      <root>
        <mxCell id="0" />
        <mxCell id="1" parent="0" />
        <mxCell id="Ih3orOqQ1EaFsegVFNFU-14" value="&lt;font style=&quot;font-size: 16px&quot; color=&quot;#ff66ff&quot;&gt;&amp;nbsp; &amp;nbsp; &amp;nbsp; &amp;nbsp; &amp;nbsp; &amp;nbsp; &amp;nbsp; &amp;nbsp; &amp;nbsp; &amp;nbsp; &amp;nbsp; &amp;nbsp; &amp;nbsp; 弱电箱&lt;/font&gt;" style="whiteSpace=wrap;html=1;" vertex="1" parent="1">
          <mxGeometry x="137.5" y="150" width="325" height="190" as="geometry" />
        </mxCell>
        <mxCell id="Ih3orOqQ1EaFsegVFNFU-8" style="edgeStyle=orthogonalEdgeStyle;rounded=0;orthogonalLoop=1;jettySize=auto;html=1;" edge="1" parent="1" source="Ih3orOqQ1EaFsegVFNFU-2" target="Ih3orOqQ1EaFsegVFNFU-7">
          <mxGeometry relative="1" as="geometry" />
        </mxCell>
        <mxCell id="Ih3orOqQ1EaFsegVFNFU-2" value="光猫&lt;br&gt;" style="fontColor=#0066CC;verticalAlign=top;verticalLabelPosition=bottom;labelPosition=center;align=center;html=1;outlineConnect=0;fillColor=#CCCCCC;strokeColor=#6881B3;gradientColor=none;gradientDirection=north;strokeWidth=2;shape=mxgraph.networks.router;" vertex="1" parent="1">
          <mxGeometry x="250" y="180" width="100" height="30" as="geometry" />
        </mxCell>
        <mxCell id="Ih3orOqQ1EaFsegVFNFU-11" style="edgeStyle=orthogonalEdgeStyle;rounded=0;orthogonalLoop=1;jettySize=auto;html=1;" edge="1" parent="1" source="Ih3orOqQ1EaFsegVFNFU-3" target="Ih3orOqQ1EaFsegVFNFU-4">
          <mxGeometry relative="1" as="geometry" />
        </mxCell>
        <mxCell id="Ih3orOqQ1EaFsegVFNFU-3" value="次路由（无线网桥）" style="fontColor=#0066CC;verticalAlign=top;verticalLabelPosition=bottom;labelPosition=center;align=center;html=1;outlineConnect=0;fillColor=#CCCCCC;strokeColor=#6881B3;gradientColor=none;gradientDirection=north;strokeWidth=2;shape=mxgraph.networks.wireless_modem;" vertex="1" parent="1">
          <mxGeometry x="250" y="410" width="100" height="85" as="geometry" />
        </mxCell>
        <mxCell id="Ih3orOqQ1EaFsegVFNFU-9" style="edgeStyle=orthogonalEdgeStyle;rounded=0;orthogonalLoop=1;jettySize=auto;html=1;entryX=0.5;entryY=1;entryDx=0;entryDy=0;entryPerimeter=0;" edge="1" parent="1" source="Ih3orOqQ1EaFsegVFNFU-4" target="Ih3orOqQ1EaFsegVFNFU-2">
          <mxGeometry relative="1" as="geometry" />
        </mxCell>
        <mxCell id="Ih3orOqQ1EaFsegVFNFU-4" value="主路由(192.168.1.1)" style="fontColor=#0066CC;verticalAlign=top;verticalLabelPosition=bottom;labelPosition=center;align=center;html=1;outlineConnect=0;fillColor=#CCCCCC;strokeColor=#6881B3;gradientColor=none;gradientDirection=north;strokeWidth=2;shape=mxgraph.networks.router;" vertex="1" parent="1">
          <mxGeometry x="250" y="270" width="100" height="30" as="geometry" />
        </mxCell>
        <mxCell id="Ih3orOqQ1EaFsegVFNFU-6" style="edgeStyle=orthogonalEdgeStyle;rounded=0;orthogonalLoop=1;jettySize=auto;html=1;" edge="1" parent="1" source="Ih3orOqQ1EaFsegVFNFU-5" target="Ih3orOqQ1EaFsegVFNFU-3">
          <mxGeometry relative="1" as="geometry">
            <mxPoint x="290" y="470" as="targetPoint" />
          </mxGeometry>
        </mxCell>
        <mxCell id="Ih3orOqQ1EaFsegVFNFU-5" value="iMac&lt;br&gt;网关(192.168.1.254)" style="fontColor=#0066CC;verticalAlign=top;verticalLabelPosition=bottom;labelPosition=center;align=center;html=1;outlineConnect=0;fillColor=#CCCCCC;strokeColor=#6881B3;gradientColor=none;gradientDirection=north;strokeWidth=2;shape=mxgraph.networks.pc;" vertex="1" parent="1">
          <mxGeometry x="60" y="540" width="100" height="70" as="geometry" />
        </mxCell>
        <mxCell id="Ih3orOqQ1EaFsegVFNFU-7" value="" style="html=1;outlineConnect=0;fillColor=#CCCCCC;strokeColor=#6881B3;gradientColor=none;gradientDirection=north;strokeWidth=2;shape=mxgraph.networks.cloud;fontColor=#ffffff;" vertex="1" parent="1">
          <mxGeometry x="255" y="40" width="90" height="50" as="geometry" />
        </mxCell>
        <mxCell id="Ih3orOqQ1EaFsegVFNFU-13" style="edgeStyle=orthogonalEdgeStyle;rounded=0;orthogonalLoop=1;jettySize=auto;html=1;" edge="1" parent="1" source="Ih3orOqQ1EaFsegVFNFU-12">
          <mxGeometry relative="1" as="geometry">
            <mxPoint x="300" y="570" as="targetPoint" />
          </mxGeometry>
        </mxCell>
        <mxCell id="Ih3orOqQ1EaFsegVFNFU-12" value="N1盒子(192.168.1.254)" style="fontColor=#0066CC;verticalAlign=top;verticalLabelPosition=bottom;labelPosition=center;align=center;html=1;outlineConnect=0;fillColor=#CCCCCC;strokeColor=#6881B3;gradientColor=none;gradientDirection=north;strokeWidth=2;shape=mxgraph.networks.desktop_pc;" vertex="1" parent="1">
          <mxGeometry x="285" y="610" width="30" height="60" as="geometry" />
        </mxCell>
        <mxCell id="Ih3orOqQ1EaFsegVFNFU-16" style="edgeStyle=orthogonalEdgeStyle;rounded=0;orthogonalLoop=1;jettySize=auto;html=1;strokeColor=none;" edge="1" parent="1" source="Ih3orOqQ1EaFsegVFNFU-15" target="Ih3orOqQ1EaFsegVFNFU-3">
          <mxGeometry relative="1" as="geometry" />
        </mxCell>
        <mxCell id="Ih3orOqQ1EaFsegVFNFU-17" style="edgeStyle=orthogonalEdgeStyle;orthogonalLoop=1;jettySize=auto;html=1;strokeColor=#000000;rounded=0;dashed=1;" edge="1" parent="1" source="Ih3orOqQ1EaFsegVFNFU-15" target="Ih3orOqQ1EaFsegVFNFU-3">
          <mxGeometry relative="1" as="geometry" />
        </mxCell>
        <mxCell id="Ih3orOqQ1EaFsegVFNFU-15" value="" style="fontColor=#0066CC;verticalAlign=top;verticalLabelPosition=bottom;labelPosition=center;align=center;html=1;outlineConnect=0;fillColor=#CCCCCC;strokeColor=#6881B3;gradientColor=none;gradientDirection=north;strokeWidth=2;shape=mxgraph.networks.mobile;" vertex="1" parent="1">
          <mxGeometry x="530" y="423.75" width="24.21" height="57.5" as="geometry" />
        </mxCell>
      </root>
    </mxGraphModel>
  </diagram>
</mxfile>
